<svg width="189" height="33" viewBox="0 0 189 33" fill="none" xmlns="http://www.w3.org/2000/svg">
<path fill-rule="evenodd" clip-rule="evenodd" d="M3.26345 28.7229C3.89373 29.3257 4.60401 29.7946 5.37506 30.1614L6.48527 32.6877H7.52829L7.73628 29.2269C7.73628 29.2269 12.7209 27.8106 14.1319 24.9049C14.3367 24.5348 14.2439 24.4807 14.0743 24.6848C14.0743 24.6848 12.3882 27.4279 6.97158 28.6049V31.5808L5.82618 29.5395C5.791 29.6192 4.24567 28.8887 3.47781 28.4869C3.16746 28.372 3.29224 28.7324 3.26345 28.7229Z" fill="#0F346D"/>
<path fill-rule="evenodd" clip-rule="evenodd" d="M3.22502 19.7569C3.8905 19.6421 4.62957 19.7154 5.10628 19.7728C5.47742 20.1875 6.88517 22.0694 10.1998 21.6899C9.60467 24.0247 6.91396 23.6164 5.14787 22.4745C4.78634 22.2416 4.47599 21.8014 4.19445 21.5144C3.47778 22.9465 0.25915 23.4314 0 20.953C2.2204 21.2624 2.52435 20.4714 3.22502 19.7569Z" fill="#0F346D"/>
<path fill-rule="evenodd" clip-rule="evenodd" d="M3.17075 23.8907L4.31614 23.8875L5.81987 24.0597C5.81987 24.0597 5.0808 25.1569 5.33995 26.1075C5.59911 27.058 6.2006 28.3625 6.09182 28.5124C5.98304 28.6624 2.76442 28.4997 2.90199 26.9846C3.04277 25.4663 3.09396 26.4391 3.14515 25.0453C3.08756 24.3818 3.16115 23.9513 3.17075 23.8907Z" fill="#0F346D"/>
<path fill-rule="evenodd" clip-rule="evenodd" d="M0.483133 13.3616C0.483133 13.3616 0.691095 10.3856 1.42056 8.72377C2.15003 7.06199 3.67616 5.64259 4.92714 5.84987C6.17811 6.05722 8.4689 6.12735 9.33597 6.05722C10.203 5.987 12.3562 5.50225 13.5016 6.22946C14.647 6.95667 15.0629 7.64886 15.306 8.96302C15.5492 10.2772 16.1731 11.1447 15.2357 12.2515C14.2983 13.3583 14.2631 13.3935 14.2631 13.3935C14.2631 13.3935 14.6438 13.9484 14.8197 14.848C14.9925 15.7474 15.1685 16.9244 15.1685 16.9244C15.1685 16.9244 16.3491 15.505 17.3217 15.6422C18.2944 15.7793 18.5023 15.8846 18.5023 15.8846C18.5023 15.8846 19.0238 12.6662 18.9534 11.5243C18.883 10.3824 19.1614 6.88654 18.2239 6.12422C17.2865 5.3619 14.7526 4.73985 14.6118 3.35556C14.4742 1.97127 14.3686 0.622007 13.812 1.03671C13.2552 1.45133 13.5336 1.83405 12.353 1.59167C11.1724 1.34929 9.33276 0.277516 9.15999 0.829356C8.98721 1.38432 9.08956 2.4561 8.22256 2.17854C7.35549 1.90106 6.69322 1.38119 6.10452 1.83092C5.51583 2.28065 5.82618 2.28065 4.68078 2.488C3.53539 2.69528 2.56276 2.62514 2.56276 3.80208C2.56276 4.9791 2.42519 4.9791 1.86848 6.01891C1.31499 7.06199 0.412746 7.82431 0.483133 13.3616Z" fill="#0F346D"/>
<path fill-rule="evenodd" clip-rule="evenodd" d="M53.9785 0.656316V2.71684H54.4684C54.8435 2.71684 55.1114 2.63289 55.2722 2.47263C55.4329 2.31237 55.5095 2.03763 55.5095 1.65605C55.5095 1.29737 55.4253 1.04553 55.2569 0.892896C55.0885 0.740264 54.7899 0.663948 54.3689 0.663948H53.9785V0.656316ZM53.2896 0.0763158H54.4225C55.0272 0.0763158 55.4789 0.206053 55.7774 0.465527C56.0759 0.725001 56.2214 1.12184 56.2214 1.65605C56.2214 2.22842 56.0683 2.64816 55.7621 2.90763C55.4559 3.16711 54.966 3.30447 54.2923 3.30447H53.9785V5.63974H53.2896V0.0763158ZM61.4497 0.0763158H62.1386V5.03684H63.9682V5.63974H61.442V0.0763158H61.4497ZM70.8959 0.786052L70.0079 3.59447H71.7532L70.8959 0.786052ZM70.5284 0.0763158H71.3092L73.1005 5.63974H72.358L71.9293 4.1821H69.8165L69.3649 5.63974H68.6683L70.5284 0.0763158ZM77.3719 0.0763158H80.6176V0.671578H79.3392V5.63974H78.6503V0.671578H77.3719V0.0763158ZM87.1013 0.786052L86.2134 3.60211H87.9587L87.1013 0.786052ZM86.7262 0.0763158H87.507L89.2983 5.63974H88.5558L88.1271 4.1821H86.0143L85.5627 5.63974H84.8661L86.7262 0.0763158ZM94.3429 0.0763158H96.8001V0.656316H95.0395V2.49553H96.7389V3.08316H95.0395V5.63974H94.3505V0.0763158H94.3429ZM103.827 0.572368C103.399 0.572368 103.069 0.763158 102.848 1.15237C102.626 1.54158 102.511 2.10632 102.511 2.85421C102.511 3.6021 102.626 4.17447 102.848 4.56368C103.069 4.95289 103.399 5.14368 103.827 5.14368C104.256 5.14368 104.585 4.94526 104.807 4.55605C105.029 4.16684 105.144 3.6021 105.144 2.85421C105.144 2.11395 105.029 1.54921 104.807 1.16C104.585 0.77079 104.256 0.572368 103.827 0.572368ZM103.827 0C104.478 0 104.983 0.251841 105.343 0.747894C105.703 1.24395 105.879 1.94605 105.879 2.86184C105.879 3.77763 105.703 4.47974 105.343 4.97579C104.983 5.47184 104.478 5.71605 103.827 5.71605C103.177 5.71605 102.671 5.46421 102.312 4.97579C101.952 4.47974 101.776 3.77763 101.776 2.86184C101.776 1.94605 101.952 1.24395 102.312 0.747894C102.671 0.24421 103.177 0 103.827 0ZM111.949 0.656316V2.55658H112.248C112.722 2.55658 113.052 2.48026 113.243 2.32763C113.434 2.175 113.526 1.91553 113.526 1.54921C113.526 1.22868 113.434 0.999736 113.258 0.862368C113.082 0.724999 112.753 0.656316 112.286 0.656316H111.949ZM111.26 0.0763158H112.209C112.952 0.0763158 113.473 0.190789 113.779 0.412105C114.077 0.641052 114.23 1.00737 114.23 1.52632C114.23 1.885 114.131 2.18263 113.939 2.41158C113.748 2.64053 113.465 2.78553 113.105 2.85421C113.289 2.8771 113.434 2.93816 113.534 3.045C113.641 3.14421 113.74 3.35026 113.848 3.66316L114.552 5.63974H113.809L113.205 3.86921C113.097 3.54869 112.99 3.34263 112.875 3.25869C112.761 3.17474 112.585 3.12895 112.332 3.12895H111.942V5.63974H111.26V0.0763158ZM119.665 0.0763158H120.683L122.123 4.58658L123.554 0.0763158H124.587V5.63974H123.937V0.694474L122.345 5.63974H121.855L120.278 0.694474V5.63974H119.665V0.0763158ZM131.821 0.786052L130.933 3.60211H132.679L131.821 0.786052ZM131.454 0.0763158H132.235L134.026 5.63974H133.283L132.855 4.1821H130.742L130.29 5.63974H129.594L131.454 0.0763158Z" fill="#0F346D"/>
<path d="M42.0209 11.9273C43.4221 11.9273 44.558 10.7949 44.558 9.39789C44.558 8.00086 43.4221 6.86841 42.0209 6.86841C40.6196 6.86841 39.4836 8.00086 39.4836 9.39789C39.4836 10.7949 40.6196 11.9273 42.0209 11.9273Z" fill="#0F346D"/>
<path d="M25.0074 23.0852C25.052 24.8255 25.3443 25.4042 25.7909 25.558C26.1725 25.6915 26.5946 25.7159 26.9519 25.7159C27.1995 25.7159 27.3335 25.7604 27.3335 25.8939C27.3335 26.072 27.1305 26.1165 26.8179 26.1165C25.3646 26.1165 24.4715 26.0477 24.0452 26.0477C23.8423 26.0477 22.795 26.1165 21.6299 26.1165C21.3376 26.1165 21.1387 26.0922 21.1387 25.8939C21.1387 25.7604 21.2726 25.7159 21.4959 25.7159C21.7882 25.7159 22.1901 25.6915 22.5027 25.6025C23.0832 25.4244 23.1725 24.7769 23.1969 22.8383L23.3998 9.64469C23.3998 9.19954 23.4688 8.88794 23.6921 8.88794C23.9398 8.88794 24.1386 9.17931 24.5202 9.57997C24.7882 9.87134 28.1859 13.5016 31.4498 16.7353C32.9681 18.2489 35.9883 21.4623 36.3699 21.8184H36.4836L36.2603 11.8099C36.2359 10.4501 36.0371 10.0251 35.5012 9.80258C35.1642 9.66903 34.6284 9.66903 34.3158 9.66903C34.0479 9.66903 33.9586 9.60019 33.9586 9.46664C33.9586 9.2886 34.2062 9.26433 34.5391 9.26433C35.7001 9.26433 36.7758 9.33309 37.2427 9.33309C37.4903 9.33309 38.3387 9.26433 39.4349 9.26433C39.7271 9.26433 39.9504 9.2886 39.9504 9.46664C39.9504 9.60019 39.8165 9.66903 39.5485 9.66903C39.3252 9.66903 39.1466 9.66903 38.8787 9.73779C38.2535 9.91591 38.0749 10.3853 38.0505 11.6319L37.8029 25.6956C37.8029 26.1853 37.7136 26.3877 37.5106 26.3877C37.263 26.3877 36.9951 26.1408 36.7515 25.898C35.3428 24.5624 32.4809 21.6404 30.1548 19.3456C27.7191 16.9377 25.2347 14.1532 24.8328 13.7283H24.7638L25.0074 23.0852Z" fill="#0F346D"/>
<path d="M40.6811 17.8281C40.6811 15.1246 40.6811 14.6268 40.6365 14.0562C40.5918 13.4531 40.3685 13.1495 39.8773 13.0605C39.6297 13.0079 39.3415 12.9877 39.0736 12.9877C38.8503 12.9877 38.7163 12.9513 38.7163 12.8096C38.7163 12.7044 38.8949 12.668 39.2522 12.668C40.1006 12.668 41.5093 12.7206 42.1588 12.7206C42.719 12.7206 44.0383 12.668 44.8867 12.668C45.1791 12.668 45.3576 12.7044 45.3576 12.8096C45.3576 12.9513 45.2237 12.9877 45.0004 12.9877C44.7772 12.9877 44.5985 13.0038 44.3306 13.0403C43.7258 13.1293 43.5471 13.4329 43.5025 14.0562C43.4578 14.6268 43.4578 15.1246 43.4578 17.8281V20.9565C43.4578 22.6805 43.4578 24.0889 43.5471 24.8498C43.6161 25.3314 43.7704 25.6511 44.4402 25.72C44.7527 25.7564 45.244 25.7928 45.5809 25.7928C45.8286 25.7928 45.9382 25.8454 45.9382 25.9344C45.9382 26.0599 45.7595 26.1125 45.5119 26.1125C44.0383 26.1125 42.6297 26.0599 42.0248 26.0599C41.5092 26.0599 40.1006 26.1125 39.2075 26.1125C38.9153 26.1125 38.7609 26.0599 38.7609 25.9344C38.7609 25.8454 38.8503 25.7928 39.1182 25.7928C39.4552 25.7928 39.7231 25.7564 39.922 25.72C40.3685 25.6471 40.5025 25.3476 40.5715 24.8296C40.6852 24.0808 40.6852 22.6765 40.6852 20.9524V17.8281H40.6811Z" fill="#0F346D"/>
<path d="M49.3321 19.6533C49.3321 22.5065 49.3321 24.0445 49.803 24.4451C50.1846 24.781 50.7651 24.9348 52.5066 24.9348C53.692 24.9348 54.5648 24.9105 55.1209 24.3116C55.3889 24.0201 55.6568 23.3969 55.7015 22.976C55.7258 22.7736 55.7705 22.6401 55.9491 22.6401C56.1074 22.6401 56.1277 22.7534 56.1277 23.0205C56.1277 23.2674 55.9694 24.9388 55.7907 25.5823C55.6568 26.072 55.5431 26.1853 54.3821 26.1853C52.7705 26.1853 51.6095 26.1408 50.6027 26.1166C49.596 26.072 48.7922 26.0477 47.8747 26.0477C47.6271 26.0477 47.1359 26.0477 46.6 26.072C46.0845 26.072 45.504 26.1166 45.0575 26.1166C44.7651 26.1166 44.6109 26.0477 44.6109 25.894C44.6109 25.7806 44.7002 25.7158 44.9681 25.7158C45.305 25.7158 45.573 25.6714 45.7719 25.6269C46.2185 25.5378 46.3321 25.0481 46.4214 24.4005C46.5351 23.4657 46.5351 21.7051 46.5351 19.6533V15.7316C46.5351 12.3442 46.5351 11.7209 46.4905 11.0046C46.4458 10.2478 46.2672 9.89161 45.5283 9.73379C45.3497 9.6893 45.0818 9.66503 44.7896 9.66503C44.5419 9.66503 44.408 9.62047 44.408 9.46264C44.408 9.30482 44.5663 9.26025 44.8991 9.26025C45.9505 9.26025 47.3592 9.32909 47.96 9.32909C48.4958 9.32909 50.1278 9.26025 51.0005 9.26025C51.3132 9.26025 51.4715 9.30482 51.4715 9.46264C51.4715 9.62047 51.3375 9.66503 51.0696 9.66503C50.8219 9.66503 50.4647 9.6893 50.1968 9.73379C49.5919 9.84712 49.4133 10.2235 49.3687 11.0046C49.324 11.7169 49.3239 12.3401 49.3239 15.7316V19.6533H49.3321Z" fill="#0F346D"/>
<path d="M53.2656 17.6903C53.2656 13.878 55.7907 8.95264 62.5011 8.95264C68.0666 8.95264 71.5334 12.1863 71.5334 17.2897C71.5334 22.3931 67.957 26.4281 62.2778 26.4281C55.8596 26.4281 53.2656 21.6363 53.2656 17.6903ZM68.4035 18.1153C68.4035 13.1212 65.5213 10.0251 61.8515 10.0251C59.2819 10.0251 56.3509 11.4497 56.3509 17.0023C56.3509 21.6404 58.9205 25.3151 63.2155 25.3151C64.7825 25.3151 68.4035 24.5543 68.4035 18.1153Z" fill="#0F346D"/>
<path fill-rule="evenodd" clip-rule="evenodd" d="M79.9187 19.6173C79.9187 21.7622 79.9187 23.5991 79.8192 24.569C79.7388 25.2421 79.6393 25.7555 79.2298 25.8468C79.0499 25.8924 78.8003 25.9381 78.501 25.9381C78.2614 25.9381 78.1711 26.0065 78.1711 26.1206C78.1711 26.2803 78.3112 26.3488 78.5806 26.3488C79.3997 26.3488 80.6781 26.2803 81.1473 26.2803C81.6763 26.2803 82.9546 26.3488 84.3027 26.3488C84.5224 26.3488 84.6923 26.2803 84.6923 26.1206C84.6923 26.0065 84.592 25.9381 84.3624 25.9381C84.0531 25.9381 83.6137 25.8924 83.3244 25.8468C82.715 25.7555 82.5949 25.2421 82.5252 24.5918C82.4257 23.5878 82.4257 21.7508 82.4257 19.6173V10.3073C82.4257 10.0563 82.4854 9.90793 82.5849 9.8623C82.7648 9.79384 83.0748 9.77102 83.3841 9.77102C83.8533 9.77102 84.6923 9.90793 85.4211 10.6838C86.5593 11.8476 86.6198 13.4106 86.6198 14.1751C86.6198 16.5482 85.0314 18.0086 83.8931 18.0086C83.4637 18.0086 83.3244 18.0771 83.3244 18.2596C83.3244 18.4194 83.4637 18.4422 83.564 18.465C83.6635 18.4878 83.8931 18.4878 83.9934 18.4878C86.8893 18.4878 89.0058 16.1603 89.0058 12.8516C89.0058 11.6194 88.4371 10.5697 87.9877 10.0791C87.6578 9.72539 86.7492 8.75564 84.2032 8.75564C83.2639 8.75564 82.0858 8.8241 81.2468 8.8241C80.6781 8.8241 79.3897 8.75564 78.3112 8.75564C78.0019 8.75564 77.8618 8.80128 77.8618 8.96101C77.8618 9.12074 77.982 9.16637 78.2116 9.16637C78.501 9.16637 78.8401 9.18919 79.0101 9.23483C79.6791 9.39456 79.849 9.77102 79.8888 10.5583C79.9286 11.2999 79.9286 11.9502 79.9286 15.4872V19.6173H79.9187ZM93.2497 19.6173C93.2497 21.7622 93.2497 23.5991 93.1502 24.569C93.0706 25.2421 92.9703 25.7555 92.5608 25.8468C92.3817 25.8924 92.1314 25.9381 91.832 25.9381C91.5924 25.9381 91.5029 26.0065 91.5029 26.1206C91.5029 26.2803 91.6422 26.3488 91.9117 26.3488C92.3212 26.3488 92.8509 26.3032 93.3202 26.3032C93.8093 26.2803 94.2587 26.2803 94.4784 26.2803C95.0877 26.2803 95.7169 26.3032 96.5957 26.3488C97.4737 26.3716 98.5929 26.4173 100.12 26.4173C100.889 26.4173 101.079 26.4172 101.219 25.8126C101.319 25.3448 101.489 23.7703 101.489 23.234C101.489 23.0059 101.489 22.8119 101.329 22.8119C101.189 22.8119 101.149 22.9032 101.109 23.1656C100.969 24.124 100.719 24.6031 100.19 24.8884C99.6607 25.1622 98.8019 25.1622 98.2729 25.1622C96.1961 25.1622 95.8662 24.8085 95.8264 23.2112C95.8065 22.5381 95.8264 20.3931 95.8264 19.6059V17.769C95.8264 17.6321 95.8463 17.5408 95.9466 17.5408C96.4357 17.5408 98.4528 17.5636 98.8424 17.6093C99.5911 17.7005 99.8804 18.0542 99.9807 18.522C100.04 18.8301 100.04 19.1267 100.06 19.3549C100.06 19.469 100.1 19.5603 100.24 19.5603C100.42 19.5603 100.42 19.3093 100.42 19.1153C100.42 18.9556 100.48 18.02 100.5 17.5522C100.579 16.3656 100.66 15.9892 100.66 15.8522C100.66 15.7153 100.6 15.6697 100.52 15.6697C100.42 15.6697 100.34 15.7838 100.19 15.9777C100.011 16.2059 99.7013 16.2858 99.2114 16.3314C98.7421 16.3771 96.4059 16.3771 95.9565 16.3771C95.8363 16.3771 95.8164 16.2858 95.8164 16.1261V10.2388C95.8164 10.0791 95.8562 10.0107 95.9565 10.0107C96.3653 10.0107 98.5025 10.0563 98.8524 10.1019C99.8705 10.2388 100.07 10.524 100.22 10.9348C100.32 11.2086 100.34 11.6079 100.34 11.7677C100.34 11.973 100.38 12.0986 100.52 12.0986C100.66 12.0986 100.7 11.9617 100.719 11.8476C100.759 11.5738 100.799 10.5468 100.82 10.3073C100.879 9.23483 100.979 8.96101 100.979 8.78983C100.979 8.67574 100.959 8.58446 100.86 8.58446C100.759 8.58446 100.64 8.65292 100.53 8.67574C100.37 8.72137 100.04 8.76701 99.6508 8.81265C99.2619 8.83547 95.2071 8.83547 94.558 8.83547C94.2686 8.83547 93.8093 8.81265 93.2804 8.78983C92.7705 8.78983 92.1819 8.76701 91.6323 8.76701C91.323 8.76701 91.1829 8.81265 91.1829 8.97238C91.1829 9.13211 91.3031 9.17774 91.5327 9.17774C91.8221 9.17774 92.162 9.20056 92.3312 9.2462C93.0002 9.40593 93.1701 9.78247 93.2099 10.5697C93.2497 11.3113 93.2497 11.9617 93.2497 15.4985V19.6173ZM112.333 26.6454C112.663 26.6683 113.022 26.6911 113.411 26.6911C114.72 26.6911 116.267 26.5313 117.076 26.1549C117.426 25.9952 117.506 25.8811 117.605 25.4817C117.805 24.6944 118.055 22.6636 118.055 22.3898C118.055 22.2072 118.015 22.0361 117.876 22.0361C117.716 22.0361 117.676 22.1274 117.605 22.5039C117.526 22.926 117.256 23.5991 116.916 24.0441C116.097 25.1166 115 25.3448 113.192 25.3448C110.466 25.3448 106.781 22.5951 106.781 17.0616C106.781 14.8026 107.17 12.5891 108.658 11.0375C109.557 10.1019 110.715 9.59992 112.483 9.59992C114.36 9.59992 115.948 10.2274 116.617 11.0375C117.126 11.6421 117.386 12.4522 117.416 13.1824C117.416 13.5133 117.456 13.6959 117.615 13.6959C117.795 13.6959 117.835 13.5133 117.855 13.1596C117.896 12.6919 117.876 11.414 117.915 10.6496C117.955 9.83948 118.015 9.55428 118.015 9.37174C118.015 9.23483 117.935 9.12074 117.706 9.09792C117.096 9.02946 116.447 8.8241 115.669 8.69856C114.729 8.56165 113.981 8.47037 112.712 8.47037C109.677 8.47037 107.74 9.40593 106.281 10.9348C104.324 12.977 103.895 15.7267 103.895 17.3126C103.895 23.2455 107.52 25.9723 111.305 26.5542L109.677 27.9461C109.407 28.1743 109.347 28.2199 109.347 28.2998C109.347 28.3683 109.507 28.4367 109.797 28.4824C111.165 28.7105 111.404 29.5548 111.404 30.1824C111.404 31.1636 110.366 31.7454 109.697 31.7454C109.407 31.7454 109.167 31.8367 109.167 32.0535C109.167 32.2132 109.327 32.2817 109.517 32.2817C112.433 32.2817 113.262 30.7186 113.262 29.7945C113.262 28.7448 112.343 28.0944 110.855 27.9347L112.333 26.6454ZM128.38 20.2905C128.48 20.2905 128.54 20.3361 128.58 20.4502L130.208 25.3791C130.308 25.6529 130.168 25.8696 130.028 25.9152C129.828 25.9381 129.738 25.9837 129.738 26.1206C129.738 26.2803 129.978 26.2803 130.348 26.3032C131.975 26.3488 133.463 26.3488 134.192 26.3488C134.941 26.3488 135.131 26.3032 135.131 26.1206C135.131 25.9609 135.031 25.9381 134.861 25.9381C134.622 25.9381 134.312 25.9152 134.002 25.8468C133.573 25.7099 132.984 25.3904 132.215 23.3025C130.917 19.777 127.652 10.2845 127.162 9.00664C126.963 8.47037 126.833 8.26501 126.653 8.26501C126.453 8.26501 126.324 8.51601 126.084 9.20056L120.991 23.8045C120.582 24.9682 120.192 25.7555 119.263 25.9039C119.103 25.9267 118.814 25.9495 118.634 25.9495C118.474 25.9495 118.395 25.9951 118.395 26.1321C118.395 26.3146 118.514 26.3602 118.784 26.3602C119.842 26.3602 120.961 26.2918 121.19 26.2918C121.819 26.2918 122.698 26.3602 123.347 26.3602C123.567 26.3602 123.697 26.3146 123.697 26.1321C123.697 25.9951 123.637 25.9495 123.387 25.9495H123.078C122.449 25.9495 122.259 25.6414 122.259 25.2307C122.259 24.9569 122.359 24.3978 122.569 23.816L123.667 20.4844C123.707 20.3475 123.747 20.3018 123.846 20.3018H128.38V20.2905ZM124.246 19.1267C124.166 19.1267 124.147 19.0583 124.166 18.967L126.043 13.2395C126.063 13.1482 126.104 13.0341 126.164 13.0341C126.223 13.0341 126.243 13.1482 126.263 13.2395L128.101 18.9898C128.121 19.0583 128.101 19.1267 128.001 19.1267H124.246ZM138.206 13.422L138.426 23.1999C138.466 25.0139 138.736 25.6186 139.135 25.7783C139.485 25.9152 139.864 25.9381 140.194 25.9381C140.413 25.9381 140.543 25.9837 140.543 26.1206C140.543 26.3032 140.363 26.3488 140.074 26.3488C138.746 26.3488 137.937 26.2803 137.547 26.2803C137.367 26.2803 136.409 26.3488 135.35 26.3488C135.081 26.3488 134.901 26.326 134.901 26.1206C134.901 25.9837 135.021 25.9381 135.231 25.9381C135.5 25.9381 135.86 25.9152 136.149 25.824C136.678 25.6414 136.759 24.9683 136.779 22.9374L136.959 9.16637C136.959 8.69855 137.018 8.3791 137.228 8.3791C137.448 8.3791 137.638 8.68719 137.987 9.09792C138.226 9.40593 141.322 13.1939 144.298 16.571C145.686 18.1569 148.432 21.4998 148.772 21.8763H148.871L148.671 11.4254C148.651 10.0107 148.472 9.56566 147.982 9.3261C147.683 9.18919 147.194 9.18919 146.904 9.18919C146.664 9.18919 146.575 9.12073 146.575 8.98382C146.575 8.80128 146.794 8.77846 147.104 8.77846C148.162 8.77846 149.141 8.84691 149.56 8.84691C149.78 8.84691 150.559 8.77846 151.557 8.77846C151.827 8.77846 152.027 8.80128 152.027 8.98382C152.027 9.12073 151.907 9.18919 151.658 9.18919C151.458 9.18919 151.288 9.18919 151.048 9.25765C150.479 9.44019 150.319 9.93075 150.3 11.2314L150.08 25.9152C150.08 26.4287 150 26.6341 149.81 26.6341C149.591 26.6341 149.34 26.3831 149.121 26.1206C147.843 24.7287 145.237 21.6824 143.119 19.275C140.902 16.765 138.646 13.8556 138.277 13.4106H138.206V13.422ZM159.237 16.1717C159.177 16.1717 159.117 16.1261 159.117 16.012V15.5213C159.117 11.9845 159.117 11.3341 159.157 10.5925C159.197 9.78247 159.357 9.38311 159.906 9.26902C160.145 9.22338 160.335 9.20056 160.495 9.20056C160.735 9.20056 160.864 9.15492 160.864 8.9952C160.864 8.83547 160.725 8.78983 160.435 8.78983C159.636 8.78983 158.358 8.85828 157.869 8.85828C157.319 8.85828 156.032 8.78983 154.933 8.78983C154.643 8.78983 154.504 8.83547 154.504 8.9952C154.504 9.15492 154.623 9.20056 154.853 9.20056C155.143 9.20056 155.482 9.22338 155.652 9.26902C156.321 9.42874 156.491 9.80529 156.531 10.5925C156.57 11.3341 156.57 11.9845 156.57 15.5213V19.6173C156.57 21.7622 156.57 23.5991 156.471 24.569C156.391 25.2421 156.291 25.7555 155.882 25.8468C155.702 25.8924 155.452 25.9381 155.153 25.9381C154.913 25.9381 154.823 26.0065 154.823 26.1206C154.823 26.2803 154.963 26.3488 155.232 26.3488C156.051 26.3488 157.33 26.2803 157.799 26.2803C158.368 26.2803 159.656 26.3488 160.974 26.3488C161.214 26.3488 161.384 26.2803 161.384 26.1206C161.384 26.0065 161.284 25.9381 161.054 25.9381C160.745 25.9381 160.305 25.8924 160.016 25.8468C159.407 25.7555 159.286 25.2421 159.217 24.5918C159.117 23.5878 159.117 21.7508 159.117 19.6173V17.575C159.117 17.4609 159.177 17.4381 159.237 17.4381H167.016C167.075 17.4381 167.136 17.4837 167.136 17.575V19.6173C167.136 21.7622 167.136 23.5991 167.036 24.569C166.956 25.2421 166.856 25.7555 166.447 25.8468C166.267 25.8924 166.017 25.9381 165.717 25.9381C165.478 25.9381 165.388 26.0065 165.388 26.1206C165.388 26.2803 165.528 26.3488 165.818 26.3488C166.616 26.3488 167.894 26.2803 168.364 26.2803C168.933 26.2803 170.222 26.3488 171.54 26.3488C171.779 26.3488 171.948 26.2803 171.948 26.1206C171.948 26.0065 171.849 25.9381 171.619 25.9381C171.31 25.9381 170.871 25.8924 170.581 25.8468C169.972 25.7555 169.852 25.2421 169.782 24.5918C169.682 23.5878 169.682 21.7508 169.682 19.6173V15.5213C169.682 11.9845 169.682 11.3341 169.722 10.5925C169.762 9.78247 169.921 9.38311 170.471 9.26902C170.711 9.22338 170.9 9.20056 171.06 9.20056C171.299 9.20056 171.429 9.15492 171.429 8.9952C171.429 8.83547 171.289 8.78983 171 8.78983C170.202 8.78983 168.923 8.85828 168.434 8.85828C167.884 8.85828 166.596 8.78983 165.498 8.78983C165.208 8.78983 165.068 8.83547 165.068 8.9952C165.068 9.15492 165.188 9.20056 165.418 9.20056C165.707 9.20056 166.047 9.22338 166.217 9.26902C166.886 9.42874 167.055 9.80529 167.096 10.5925C167.136 11.3341 167.136 11.9845 167.136 15.5213V16.012C167.136 16.1261 167.075 16.1717 167.016 16.1717H159.237ZM181.715 20.2905H177.171C177.072 20.2905 177.031 20.3361 176.992 20.473L175.893 23.8045C175.693 24.3864 175.584 24.9454 175.584 25.2193C175.584 25.6414 175.764 25.9381 176.403 25.9381H176.712C176.952 25.9381 177.021 25.9837 177.021 26.1206C177.021 26.3032 176.902 26.3488 176.672 26.3488C176.023 26.3488 175.144 26.2803 174.515 26.2803C174.295 26.2803 173.167 26.3488 172.108 26.3488C171.839 26.3488 171.719 26.3032 171.719 26.1206C171.719 25.9837 171.799 25.9381 171.958 25.9381C172.138 25.9381 172.428 25.9152 172.588 25.8924C173.527 25.7555 173.916 24.9569 174.315 23.7931L179.428 9.17774C179.668 8.50464 179.798 8.24219 179.998 8.24219C180.177 8.24219 180.307 8.44755 180.507 8.98382C180.996 10.2617 184.251 19.7542 185.56 23.2797C186.328 25.3676 186.928 25.6871 187.347 25.824C187.656 25.8924 187.956 25.9152 188.206 25.9152C188.366 25.9152 188.475 25.9381 188.475 26.0978C188.475 26.2803 188.296 26.326 187.537 26.326C186.807 26.326 185.32 26.326 183.692 26.2803C183.323 26.2575 183.083 26.2575 183.083 26.0978C183.083 25.9609 183.163 25.9152 183.373 25.8924C183.513 25.8468 183.662 25.6414 183.553 25.3562L181.924 20.4274C181.875 20.3361 181.815 20.2905 181.715 20.2905ZM177.581 19.1267H181.326C181.425 19.1267 181.445 19.0583 181.425 18.9898L179.588 13.2395C179.568 13.1482 179.548 13.0341 179.488 13.0341C179.428 13.0341 179.388 13.1482 179.368 13.2395L177.491 18.967C177.481 19.0583 177.501 19.1267 177.581 19.1267Z" fill="#0F346D"/>
</svg>
